<?xml version="1.0" encoding="utf-8"?>
<!-- Generator: Adobe Illustrator 22.0.1, SVG Export Plug-In . SVG Version: 6.00 Build 0)  -->
<svg version="1.1" id="Layer_1" xmlns="http://www.w3.org/2000/svg" xmlns:xlink="http://www.w3.org/1999/xlink" x="0px" y="0px"
	 viewBox="0 0 80 64" style="enable-background:new 0 0 307 64;" xml:space="preserve">
<style type="text/css">
	.st0{fill:#FFFFFF;}
	.st1{clip-path:url(#SVGID_2_);fill:url(#SVGID_3_);}
	.st2{clip-path:url(#SVGID_5_);fill:url(#SVGID_6_);}
	.st3{clip-path:url(#SVGID_8_);fill:url(#SVGID_9_);}
	.st4{clip-path:url(#SVGID_11_);fill:url(#SVGID_12_);}
	.st5{clip-path:url(#SVGID_14_);fill:url(#SVGID_15_);}
	.st6{clip-path:url(#SVGID_17_);fill:url(#SVGID_18_);}
	.st7{clip-path:url(#SVGID_20_);fill:url(#SVGID_21_);}
	.st8{clip-path:url(#SVGID_23_);fill:url(#SVGID_24_);}
	.st9{clip-path:url(#SVGID_26_);fill:url(#SVGID_27_);}
	.st10{fill:#4A6EA6;}
	.st11{fill:#FEC51E;}
</style>
<g>
	<path class="st0" d="M87.2,54.6c1.1,0.7,2.7,1.2,4.4,1.2c2.5,0,3.9-1.3,3.9-3.2c0-1.8-1-2.8-3.6-3.8c-3.1-1.1-5-2.7-5-5.3
		c0-2.9,2.4-5.1,6.1-5.1c1.9,0,3.3,0.4,4.2,0.9l-0.7,2C96,41,94.7,40.4,93,40.4c-2.6,0-3.6,1.5-3.6,2.8c0,1.8,1.1,2.6,3.8,3.6
		c3.2,1.2,4.8,2.8,4.8,5.5c0,2.9-2.2,5.4-6.6,5.4c-1.8,0-3.8-0.5-4.8-1.2L87.2,54.6z"/>
	<path class="st0" d="M112.6,53.9c0,1.4,0,2.6,0.1,3.7h-2.2l-0.1-2.2h-0.1c-0.6,1.1-2.1,2.5-4.5,2.5c-2.1,0-4.7-1.2-4.7-5.9V44h2.5
		v7.5c0,2.6,0.8,4.3,3,4.3c1.7,0,2.8-1.1,3.2-2.2c0.1-0.4,0.2-0.8,0.2-1.3V44h2.5V53.9z"/>
	<path class="st0" d="M116.7,48.2c0-1.6,0-3-0.1-4.2h2.2l0.1,2.7h0.1c0.6-1.8,2.1-3,3.8-3c0.3,0,0.5,0,0.7,0.1v2.3
		c-0.3-0.1-0.5-0.1-0.8-0.1c-1.7,0-3,1.3-3.3,3.2c-0.1,0.3-0.1,0.7-0.1,1.1v7.2h-2.4V48.2z"/>
	<path class="st0" d="M137.3,44c-0.1,1-0.1,2.1-0.1,3.7v7.9c0,3.1-0.6,5-1.9,6.2c-1.3,1.2-3.2,1.6-4.9,1.6c-1.6,0-3.4-0.4-4.5-1.1
		l0.6-1.9c0.9,0.6,2.3,1.1,4,1.1c2.5,0,4.4-1.3,4.4-4.7v-1.5h-0.1c-0.8,1.3-2.2,2.3-4.3,2.3c-3.4,0-5.8-2.9-5.8-6.6
		c0-4.6,3-7.2,6.1-7.2c2.4,0,3.6,1.2,4.2,2.4h0.1l0.1-2H137.3z M134.8,49.4c0-0.4,0-0.8-0.1-1.1c-0.4-1.4-1.7-2.6-3.4-2.6
		c-2.4,0-4,2-4,5.1c0,2.7,1.3,4.9,4,4.9c1.5,0,2.9-1,3.4-2.5c0.1-0.4,0.2-0.9,0.2-1.3V49.4z"/>
	<path class="st0" d="M142.7,51.2c0.1,3.3,2.2,4.7,4.6,4.7c1.8,0,2.8-0.3,3.8-0.7l0.4,1.8c-0.9,0.4-2.4,0.8-4.5,0.8
		c-4.2,0-6.7-2.7-6.7-6.8s2.4-7.3,6.4-7.3c4.4,0,5.6,3.9,5.6,6.4c0,0.5-0.1,0.9-0.1,1.1H142.7z M149.9,49.5c0-1.6-0.6-4-3.4-4
		c-2.5,0-3.6,2.3-3.8,4H149.9z"/>
	<path class="st0" d="M155.3,48.2c0-1.6,0-3-0.1-4.2h2.2l0.1,2.7h0.1c0.6-1.8,2.1-3,3.8-3c0.3,0,0.5,0,0.7,0.1v2.3
		c-0.3-0.1-0.5-0.1-0.8-0.1c-1.7,0-3,1.3-3.3,3.2c-0.1,0.3-0.1,0.7-0.1,1.1v7.2h-2.4V48.2z"/>
	<path class="st0" d="M166.1,44l3,8c0.3,0.9,0.6,2,0.9,2.8h0.1c0.3-0.8,0.5-1.8,0.9-2.8l2.7-8h2.6l-3.7,9.7c-1.8,4.6-3,7-4.6,8.5
		c-1.2,1.1-2.4,1.5-3,1.6l-0.6-2.1c0.6-0.2,1.4-0.6,2.2-1.2c0.7-0.5,1.5-1.5,2.1-2.7c0.1-0.3,0.2-0.4,0.2-0.6s-0.1-0.3-0.2-0.6
		l-5-12.5H166.1z"/>
	<path class="st0" d="M186.5,57.6l-4.8-18.9h2.6l2.2,9.5c0.6,2.4,1.1,4.7,1.4,6.5h0.1c0.3-1.9,0.9-4.1,1.5-6.6l2.5-9.5h2.5l2.3,9.6
		c0.5,2.2,1,4.5,1.3,6.5h0.1c0.4-2.1,0.9-4.2,1.5-6.5l2.5-9.5h2.5l-5.3,18.9h-2.5l-2.4-9.8c-0.6-2.4-1-4.3-1.2-6.2h-0.1
		c-0.3,1.9-0.8,3.7-1.5,6.2l-2.7,9.8H186.5z"/>
	<path class="st0" d="M213.6,57.6l-0.2-1.7h-0.1c-0.8,1.1-2.2,2-4.1,2c-2.7,0-4.1-1.9-4.1-3.9c0-3.3,2.9-5.1,8.1-5v-0.3
		c0-1.1-0.3-3.1-3.1-3.1c-1.3,0-2.6,0.4-3.5,1l-0.6-1.6c1.1-0.7,2.7-1.2,4.5-1.2c4.1,0,5.2,2.8,5.2,5.5v5.1c0,1.2,0.1,2.3,0.2,3.2
		H213.6z M213.2,50.7c-2.7-0.1-5.7,0.4-5.7,3.1c0,1.6,1.1,2.4,2.3,2.4c1.8,0,2.9-1.1,3.3-2.3c0.1-0.3,0.1-0.5,0.1-0.8V50.7z"/>
	<path class="st0" d="M222.3,40.2c0,0.8-0.6,1.5-1.6,1.5c-0.9,0-1.5-0.7-1.5-1.5c0-0.9,0.6-1.5,1.5-1.5
		C221.7,38.7,222.3,39.3,222.3,40.2z M219.6,57.6V44h2.5v13.6H219.6z"/>
	<path class="st0" d="M229.1,40.1V44h3.5v1.9h-3.5v7.3c0,1.7,0.5,2.6,1.8,2.6c0.6,0,1.1-0.1,1.4-0.2l0.1,1.8
		c-0.5,0.2-1.2,0.3-2.2,0.3c-1.1,0-2.1-0.4-2.7-1c-0.7-0.7-1-1.9-1-3.5v-7.4h-2.1V44h2.1v-3.2L229.1,40.1z"/>
	<path class="st0" d="M243.8,40.8h-5.7v-2.1h14v2.1h-5.8v16.8h-2.5V40.8z"/>
	<path class="st0" d="M256.5,40.2c0,0.8-0.6,1.5-1.6,1.5c-0.9,0-1.5-0.7-1.5-1.5c0-0.9,0.6-1.5,1.5-1.5
		C255.9,38.7,256.5,39.3,256.5,40.2z M253.8,57.6V44h2.5v13.6H253.8z"/>
	<path class="st0" d="M260.3,47.7c0-1.4,0-2.5-0.1-3.7h2.2l0.1,2.2h0.1c0.8-1.3,2-2.5,4.3-2.5c1.8,0,3.2,1.1,3.8,2.7h0.1
		c0.4-0.8,1-1.3,1.5-1.8c0.8-0.6,1.7-1,3-1c1.8,0,4.5,1.2,4.5,5.9v8h-2.4v-7.7c0-2.6-1-4.2-2.9-4.2c-1.4,0-2.5,1-2.9,2.2
		c-0.1,0.3-0.2,0.8-0.2,1.2v8.4h-2.4v-8.1c0-2.2-1-3.7-2.8-3.7c-1.5,0-2.7,1.2-3.1,2.5c-0.1,0.4-0.2,0.8-0.2,1.2v8.2h-2.4V47.7z"/>
	<path class="st0" d="M285,51.2c0.1,3.3,2.2,4.7,4.6,4.7c1.8,0,2.8-0.3,3.8-0.7l0.4,1.8c-0.9,0.4-2.4,0.8-4.5,0.8
		c-4.2,0-6.7-2.7-6.7-6.8s2.4-7.3,6.4-7.3c4.4,0,5.6,3.9,5.6,6.4c0,0.5-0.1,0.9-0.1,1.1H285z M292.2,49.5c0-1.6-0.6-4-3.4-4
		c-2.5,0-3.6,2.3-3.8,4H292.2z"/>
	<path class="st0" d="M297.3,55.1c0.7,0.5,2,1,3.2,1c1.8,0,2.6-0.9,2.6-2c0-1.2-0.7-1.8-2.5-2.5c-2.4-0.9-3.6-2.2-3.6-3.8
		c0-2.2,1.8-4,4.7-4c1.4,0,2.6,0.4,3.3,0.8l-0.6,1.8c-0.5-0.3-1.5-0.8-2.8-0.8c-1.5,0-2.3,0.8-2.3,1.8c0,1.1,0.8,1.6,2.6,2.3
		c2.4,0.9,3.6,2.1,3.6,4.1c0,2.4-1.8,4.1-5.1,4.1c-1.5,0-2.9-0.4-3.8-0.9L297.3,55.1z"/>
</g>
<g>
	<path class="st0" d="M9.5,39.1c0-1-0.1-1.3-0.8-1.4l-0.5,0c-0.1-0.1-0.1-0.3,0-0.4c0.8-0.1,1.9-0.1,3.4-0.1c1,0,1.9,0.1,2.6,0.4
		c0.7,0.3,1.2,0.9,1.2,1.8c0,1-0.7,1.5-1.6,1.9c0,0.1,0.1,0.2,0.3,0.2c0.8,0.1,2.1,0.8,2.1,2.3c0,1.6-1.3,2.7-4.2,2.7
		c-0.5,0-1.2,0-1.9,0c-0.7,0-1.2,0-1.8,0c-0.1,0-0.1-0.3,0-0.4l0.3,0c0.8-0.1,0.9-0.3,0.9-1.8V39.1z M10.8,41c0,0.4,0,0.4,0.8,0.4
		c1.6-0.1,2.4-0.5,2.4-1.8c0-1.4-1.1-1.9-2.3-1.9c-0.3,0-0.6,0-0.7,0.1c-0.2,0-0.2,0.1-0.2,0.4V41z M10.8,44.3c0,0.5,0,1.2,0.3,1.5
		c0.3,0.3,0.8,0.4,1.2,0.4c1.4,0,2.4-0.6,2.4-2c0-1.1-0.6-2.4-3.1-2.4c-0.8,0-0.9,0.1-0.9,0.4V44.3z"/>
	<path class="st0" d="M27.1,40.5c0-1.3,0-1.5-0.8-1.5l-0.3,0c-0.1,0-0.1-0.3,0-0.3c0.7,0,1.1,0,1.7,0c0.5,0,1,0,1.7,0
		c0.1,0,0.1,0.3,0,0.3L29,39c-0.8,0.1-0.8,0.3-0.8,1.5v4.3c0,1.3,0,1.4,0.8,1.5l0.3,0c0.1,0,0.1,0.3,0,0.3c-0.7,0-1.1,0-1.7,0
		c-0.6,0-1,0-1.7,0c-0.1,0-0.1-0.2,0-0.3l0.3,0c0.8-0.1,0.8-0.3,0.8-1.5V40.5z"/>
	<path class="st0" d="M34.5,44.8c0,1.3,0,1.4,0.7,1.5l0.4,0c0.1,0,0.1,0.3,0,0.3c-0.7,0-1.1,0-1.6,0c-0.5,0-0.9,0-1.7,0
		c-0.1,0-0.1-0.2,0-0.3l0.4,0c0.7-0.1,0.8-0.2,0.8-1.5v-5.4c0-0.4,0-0.4-0.4-0.4h-0.7c-0.5,0-1.2,0-1.5,0.3
		c-0.3,0.3-0.4,0.5-0.6,0.8c-0.1,0.1-0.3,0-0.3-0.1c0.2-0.5,0.4-1.3,0.5-1.8c0,0,0.2,0,0.2,0c0.1,0.4,0.5,0.4,1.1,0.4h5.1
		c0.7,0,0.8,0,1-0.3c0.1,0,0.2,0,0.2,0c-0.1,0.5-0.2,1.5-0.2,1.8c0,0.1-0.3,0.1-0.3,0c0-0.3-0.1-0.7-0.3-0.9
		c-0.3-0.2-0.8-0.3-1.4-0.3h-0.9c-0.4,0-0.4,0-0.4,0.4V44.8z"/>
	<path class="st0" d="M39.8,40.5c0-1.3,0-1.5-0.8-1.5l-0.3,0c-0.1,0-0.1-0.3,0-0.3c0.7,0,1.1,0,1.7,0c0.5,0,1,0,1.7,0
		c0.1,0,0.1,0.3,0,0.3l-0.3,0c-0.8,0.1-0.8,0.3-0.8,1.5v4.3c0,1.3,0,1.4,0.8,1.5l0.3,0c0.1,0,0.1,0.3,0,0.3c-0.7,0-1.1,0-1.7,0
		c-0.6,0-1,0-1.7,0c-0.1,0-0.1-0.2,0-0.3l0.3,0c0.8-0.1,0.8-0.3,0.8-1.5V40.5z"/>
	<path class="st0" d="M45.8,46.8c-1.2,0-1.9-0.3-2.2-0.4c-0.2-0.3-0.4-1.1-0.4-1.7c0.1-0.1,0.3-0.1,0.3,0c0.2,0.6,0.8,1.8,2.4,1.8
		c1.2,0,1.8-0.7,1.8-1.4c0-0.5-0.1-1.1-1.2-1.7l-1.3-0.7c-0.7-0.4-1.5-1.1-1.5-2.1c0-1.1,1-2.1,2.9-2.1c0.4,0,0.9,0.1,1.3,0.2
		c0.2,0,0.4,0.1,0.5,0.1c0.1,0.3,0.3,1,0.3,1.5c-0.1,0.1-0.3,0.1-0.4,0c-0.2-0.6-0.6-1.4-1.9-1.4c-1.4,0-1.7,0.8-1.7,1.3
		c0,0.7,0.7,1.2,1.2,1.5l1.1,0.6c0.9,0.5,1.8,1.2,1.8,2.3C48.8,45.9,47.6,46.8,45.8,46.8"/>
	<path class="st0" d="M52.9,42.7c-0.6,0-0.6,0-0.6,0.4v1.7c0,1.3,0.1,1.4,0.8,1.5l0.4,0c0.1,0,0.1,0.3,0,0.3c-0.7,0-1.1,0-1.6,0
		c-0.6,0-1,0-1.5,0c-0.1,0-0.1-0.2,0-0.3l0.2,0c0.7-0.1,0.7-0.2,0.7-1.5v-4.3c0-1.3-0.1-1.5-0.8-1.5l-0.3,0c-0.1,0-0.1-0.3,0-0.3
		c0.6,0,1.1,0,1.6,0c0.5,0,0.9,0,1.5,0c0.1,0,0.1,0.3,0,0.3L53,39c-0.7,0.1-0.8,0.3-0.8,1.5v1.4c0,0.4,0,0.4,0.6,0.4h3.7
		c0.6,0,0.6,0,0.6-0.4v-1.4c0-1.3,0-1.4-0.8-1.5l-0.2,0c-0.1,0-0.1-0.3,0-0.3c0.6,0,1,0,1.6,0c0.5,0,0.9,0,1.5,0
		c0.1,0,0.1,0.3,0,0.3l-0.3,0c-0.7,0.1-0.8,0.3-0.8,1.5v4.3c0,1.3,0,1.4,0.8,1.5l0.3,0c0.1,0,0.1,0.3,0,0.3c-0.6,0-1.1,0-1.6,0
		c-0.5,0-1,0-1.6,0c-0.1,0-0.1-0.2,0-0.3l0.2,0c0.8-0.1,0.8-0.2,0.8-1.5v-1.7c0-0.4,0-0.4-0.6-0.4H52.9z"/>
	<path class="st0" d="M2.1,49.3C3.2,48.5,4.5,48,6,48c0.8,0,1.9,0.2,2.6,0.3c0.2,0,0.3,0.1,0.4,0.1c0,0.3,0.1,1.2,0.2,2.1
		c-0.1,0.1-0.3,0.1-0.4,0c-0.2-1-0.9-2.1-3-2.1c-2.2,0-4.1,1.4-4.1,4.4c0,3,1.9,4.7,4.3,4.7c1.9,0,2.7-1.2,3-2.1
		c0.1-0.1,0.3,0,0.4,0.1c-0.1,0.8-0.5,1.7-0.7,2c-0.2,0-0.3,0.1-0.5,0.1c-0.3,0.1-1.4,0.3-2.3,0.3c-1.3,0-2.6-0.3-3.6-1
		c-1.2-0.8-2.1-2.1-2.1-4C0.3,51.5,1,50.1,2.1,49.3"/>
	<path class="st0" d="M10.1,54c0-2.4,1.9-4.2,4.5-4.2c2.9,0,4.4,2,4.4,4.1c0,2.4-1.9,4.2-4.4,4.2C11.8,58,10.1,56.1,10.1,54
		 M17.7,54.2c0-2-0.9-4.1-3.3-4.1c-1.3,0-3,0.9-3,3.5c0,1.8,0.9,4.1,3.4,4.1C16.2,57.7,17.7,56.6,17.7,54.2"/>
	<path class="st0" d="M33.2,52.9c0-0.7,0-2.1-0.2-2.5c-0.1-0.1-0.3-0.2-0.6-0.3l-0.3,0c-0.1-0.1-0.1-0.2,0-0.3c0.5,0,1,0,1.5,0
		c0.5,0,0.9,0,1.3,0c0.1,0.1,0.1,0.2,0,0.3l-0.3,0c-0.3,0-0.6,0.1-0.6,0.3c-0.2,0.4-0.2,1.8-0.2,2.4v1.4c0,1-0.2,2.1-0.9,2.9
		c-0.5,0.6-1.5,0.9-2.4,0.9c-0.9,0-1.8-0.2-2.4-0.7c-0.7-0.5-1-1.4-1-2.8v-2.8c0-1.2,0-1.5-0.8-1.5l-0.3,0c-0.1,0-0.1-0.3,0-0.3
		c0.6,0,1.1,0,1.6,0c0.5,0,0.9,0,1.6,0c0.1,0,0.1,0.2,0,0.3l-0.3,0c-0.7,0.1-0.8,0.3-0.8,1.5v2.6c0,1.9,0.6,3.2,2.6,3.2
		c1.8,0,2.5-1.4,2.5-3.2V52.9z"/>
	<path class="st0" d="M48,51.4c0-0.9-0.1-1.1-0.7-1.2l-0.5,0c-0.1,0-0.1-0.3,0-0.3c0.8-0.1,1.7-0.1,3-0.1c0.9,0,1.7,0.1,2.4,0.3
		c0.6,0.3,1.1,0.7,1.1,1.5c0,0.9-0.6,1.3-1.4,1.7c0,0.1,0.1,0.2,0.3,0.2c0.8,0.1,1.9,0.7,1.9,2c0,1.4-1.2,2.4-3.7,2.4
		c-0.4,0-1.1,0-1.7,0c-0.6,0-1.1,0-1.6,0c-0.1,0-0.1-0.2,0-0.3l0.3,0c0.7-0.1,0.8-0.2,0.8-1.5V51.4z M49.1,53c0,0.3,0,0.4,0.7,0.3
		c1.4,0,2.2-0.4,2.2-1.6c0-1.2-1-1.6-2.1-1.6c-0.3,0-0.5,0-0.6,0.1c-0.1,0-0.2,0.1-0.2,0.3V53z M49.1,55.9c0,0.4,0,1.1,0.3,1.3
		c0.3,0.3,0.7,0.3,1.1,0.3c1.3,0,2.2-0.5,2.2-1.7c0-1-0.6-2.1-2.8-2.1c-0.8,0-0.8,0.1-0.8,0.3V55.9z"/>
</g>
<g>
	<defs>
		<path id="SVGID_1_" d="M8.2,21.4l5.5-3.1l3,2.1c0,0,1.8-0.8,2.1-1l2.2,2.3c0,0,4.8,3.8,4.9,3.8s4.2-2.4,4.2-2.4l3.6-2.5l3.2,2.3
			l2.4,0.5l2.4,1.6c0,0,5.9-3.9,6.8-4.4c0,0,2.6,0.9,2.8,0.9c0.2,0,4.2-3.2,4.2-3.2l3.4,2.5C56.3,9.3,46,0.8,33.7,0.8
			C21.1,0.8,10.7,9.6,8.2,21.4"/>
	</defs>
	<clipPath id="SVGID_2_">
		<use xlink:href="#SVGID_1_"  style="overflow:visible;"/>
	</clipPath>
	
		<radialGradient id="SVGID_3_" cx="-161.328" cy="421.2809" r="1.0596" gradientTransform="matrix(23.9713 0 0 -23.9713 3900.8267 10124.0088)" gradientUnits="userSpaceOnUse">
		<stop  offset="0" style="stop-color:#FFFFFF"/>
		<stop  offset="0.1247" style="stop-color:#FFFEFB"/>
		<stop  offset="0.2357" style="stop-color:#FFFAF1"/>
		<stop  offset="0.3415" style="stop-color:#FFF4DE"/>
		<stop  offset="0.444" style="stop-color:#FFEBC5"/>
		<stop  offset="0.5433" style="stop-color:#FFE0A4"/>
		<stop  offset="0.6" style="stop-color:#FFD88E"/>
		<stop  offset="0.6138" style="stop-color:#FFD583"/>
		<stop  offset="0.6623" style="stop-color:#FECC61"/>
		<stop  offset="0.7141" style="stop-color:#FDC444"/>
		<stop  offset="0.7694" style="stop-color:#FDBE2E"/>
		<stop  offset="0.83" style="stop-color:#FCBA1F"/>
		<stop  offset="0.8999" style="stop-color:#FCB816"/>
		<stop  offset="1" style="stop-color:#FCB713"/>
	</radialGradient>
	<rect x="8.2" y="0.8" class="st1" width="50.8" height="24.7"/>
</g>
<g>
	<defs>
		<path id="SVGID_4_" d="M32.4,0.8L33,13.5c0.3,0,0.6,0,0.9,0c0.3,0,0.5,0,0.8,0l0.9-12.6c-0.6,0-1.3-0.1-1.9-0.1
			C33.2,0.8,32.8,0.8,32.4,0.8"/>
	</defs>
	<clipPath id="SVGID_5_">
		<use xlink:href="#SVGID_4_"  style="overflow:visible;"/>
	</clipPath>
	
		<radialGradient id="SVGID_6_" cx="-161.9542" cy="421.4638" r="1.0596" gradientTransform="matrix(22.4631 0 0 -24.5633 3671.6519 10379.3174)" gradientUnits="userSpaceOnUse">
		<stop  offset="0" style="stop-color:#FFFFFF"/>
		<stop  offset="0.53" style="stop-color:#FFFFFF"/>
		<stop  offset="0.594" style="stop-color:#FFF8EB"/>
		<stop  offset="0.7249" style="stop-color:#FFE5B7"/>
		<stop  offset="0.77" style="stop-color:#FFDEA3"/>
		<stop  offset="0.8062" style="stop-color:#FFD88F"/>
		<stop  offset="0.88" style="stop-color:#FFC75B"/>
		<stop  offset="0.9164" style="stop-color:#FEC347"/>
		<stop  offset="0.9671" style="stop-color:#FDBE32"/>
		<stop  offset="1" style="stop-color:#FDBC2A"/>
	</radialGradient>
	<rect x="32.4" y="0.8" class="st2" width="3.2" height="12.7"/>
</g>
<g>
	<defs>
		<path id="SVGID_7_" d="M22.7,3.2l5.4,11.6c0.5-0.2,1-0.4,1.5-0.6L25.7,2C24.7,2.3,23.7,2.7,22.7,3.2"/>
	</defs>
	<clipPath id="SVGID_8_">
		<use xlink:href="#SVGID_7_"  style="overflow:visible;"/>
	</clipPath>
	
		<radialGradient id="SVGID_9_" cx="-164.299" cy="425.428" r="1.0596" gradientTransform="matrix(20.8566 -8.4272 -9.2144 -22.8071 7380.4229 8344.9639)" gradientUnits="userSpaceOnUse">
		<stop  offset="0" style="stop-color:#FFFFFF"/>
		<stop  offset="0.53" style="stop-color:#FFFFFF"/>
		<stop  offset="0.594" style="stop-color:#FFF8EB"/>
		<stop  offset="0.7249" style="stop-color:#FFE5B7"/>
		<stop  offset="0.77" style="stop-color:#FFDEA3"/>
		<stop  offset="0.8062" style="stop-color:#FFD88F"/>
		<stop  offset="0.88" style="stop-color:#FFC75B"/>
		<stop  offset="0.9164" style="stop-color:#FEC347"/>
		<stop  offset="0.9671" style="stop-color:#FDBE32"/>
		<stop  offset="1" style="stop-color:#FDBC2A"/>
	</radialGradient>
	<polygon class="st3" points="18.3,3.8 28.6,-0.4 34,13 23.7,17.2 	"/>
</g>
<g>
	<defs>
		<path id="SVGID_10_" d="M14.7,8.9l9.4,8.8c0.4-0.4,0.8-0.8,1.2-1.1L17,6.8C16.2,7.4,15.4,8.2,14.7,8.9"/>
	</defs>
	<clipPath id="SVGID_11_">
		<use xlink:href="#SVGID_10_"  style="overflow:visible;"/>
	</clipPath>
	
		<radialGradient id="SVGID_12_" cx="-164.8659" cy="429.9007" r="1.0596" gradientTransform="matrix(16.1828 -15.6268 -17.0906 -17.6958 10048.9219 5057.8779)" gradientUnits="userSpaceOnUse">
		<stop  offset="0" style="stop-color:#FFFFFF"/>
		<stop  offset="0.53" style="stop-color:#FFFFFF"/>
		<stop  offset="0.594" style="stop-color:#FFF8EB"/>
		<stop  offset="0.7249" style="stop-color:#FFE5B7"/>
		<stop  offset="0.77" style="stop-color:#FFDEA3"/>
		<stop  offset="0.8062" style="stop-color:#FFD88F"/>
		<stop  offset="0.88" style="stop-color:#FFC75B"/>
		<stop  offset="0.9164" style="stop-color:#FEC347"/>
		<stop  offset="0.9671" style="stop-color:#FDBE32"/>
		<stop  offset="1" style="stop-color:#FDBC2A"/>
	</radialGradient>
	<polygon class="st4" points="9.2,12.1 20.2,1.5 30.8,12.5 19.8,23.1 	"/>
</g>
<g>
	<defs>
		<path id="SVGID_13_" d="M9.4,17.2l12.1,4.7c0.2-0.5,0.4-1,0.7-1.5l-11.4-6.1C10.4,15.1,9.7,16.4,9.4,17.2"/>
	</defs>
	<clipPath id="SVGID_14_">
		<use xlink:href="#SVGID_13_"  style="overflow:visible;"/>
	</clipPath>
	
		<radialGradient id="SVGID_15_" cx="-161.0959" cy="421.4697" r="1.0596" gradientTransform="matrix(24.5825 0 0 -24.5825 3993.8047 10387.5527)" gradientUnits="userSpaceOnUse">
		<stop  offset="0" style="stop-color:#FFFFFF"/>
		<stop  offset="0.53" style="stop-color:#FFFFFF"/>
		<stop  offset="0.594" style="stop-color:#FFF8EB"/>
		<stop  offset="0.7249" style="stop-color:#FFE5B7"/>
		<stop  offset="0.77" style="stop-color:#FFDEA3"/>
		<stop  offset="0.8062" style="stop-color:#FFD88F"/>
		<stop  offset="0.88" style="stop-color:#FFC75B"/>
		<stop  offset="0.9164" style="stop-color:#FEC347"/>
		<stop  offset="0.9671" style="stop-color:#FDBE32"/>
		<stop  offset="1" style="stop-color:#FDBC2A"/>
	</radialGradient>
	<rect x="9.4" y="14.3" class="st5" width="12.8" height="7.6"/>
</g>
<g>
	<defs>
		<path id="SVGID_16_" d="M38.1,14.1c0.5,0.2,1.1,0.4,1.5,0.6l5.6-11.3c-1-0.5-1.9-0.9-3-1.2L38.1,14.1z"/>
	</defs>
	<clipPath id="SVGID_17_">
		<use xlink:href="#SVGID_16_"  style="overflow:visible;"/>
	</clipPath>
	
		<radialGradient id="SVGID_18_" cx="-158.1388" cy="418.6086" r="1.0596" gradientTransform="matrix(20.8394 8.4203 9.2068 -22.7885 -524.8693 10897.792)" gradientUnits="userSpaceOnUse">
		<stop  offset="0" style="stop-color:#FFFFFF"/>
		<stop  offset="0.53" style="stop-color:#FFFFFF"/>
		<stop  offset="0.594" style="stop-color:#FFF8EB"/>
		<stop  offset="0.7249" style="stop-color:#FFE5B7"/>
		<stop  offset="0.77" style="stop-color:#FFDEA3"/>
		<stop  offset="0.8062" style="stop-color:#FFD88F"/>
		<stop  offset="0.88" style="stop-color:#FFC75B"/>
		<stop  offset="0.9164" style="stop-color:#FEC347"/>
		<stop  offset="0.9671" style="stop-color:#FDBE32"/>
		<stop  offset="1" style="stop-color:#FDBC2A"/>
	</radialGradient>
	<polygon class="st6" points="39.1,-0.3 49.5,4 44.2,17.2 33.7,13 	"/>
</g>
<g>
	<defs>
		<path id="SVGID_19_" d="M42.4,16.6c0.4,0.4,0.8,0.7,1.2,1.1L53,9.3c-0.7-0.8-1.5-1.5-2.3-2.2L42.4,16.6z"/>
	</defs>
	<clipPath id="SVGID_20_">
		<use xlink:href="#SVGID_19_"  style="overflow:visible;"/>
	</clipPath>
	
		<radialGradient id="SVGID_21_" cx="-153.4377" cy="417.2357" r="1.0596" gradientTransform="matrix(16.1306 15.5764 17.0355 -17.6388 -4599.1191 9776.3076)" gradientUnits="userSpaceOnUse">
		<stop  offset="0" style="stop-color:#FFFFFF"/>
		<stop  offset="0.53" style="stop-color:#FFFFFF"/>
		<stop  offset="0.594" style="stop-color:#FFF8EB"/>
		<stop  offset="0.7249" style="stop-color:#FFE5B7"/>
		<stop  offset="0.77" style="stop-color:#FFDEA3"/>
		<stop  offset="0.8062" style="stop-color:#FFD88F"/>
		<stop  offset="0.88" style="stop-color:#FFC75B"/>
		<stop  offset="0.9164" style="stop-color:#FEC347"/>
		<stop  offset="0.9671" style="stop-color:#FDBE32"/>
		<stop  offset="1" style="stop-color:#FDBC2A"/>
	</radialGradient>
	<polygon class="st7" points="47.5,1.9 58.3,12.2 47.9,23 37.1,12.6 	"/>
</g>
<g>
	<defs>
		<path id="SVGID_22_" d="M45.6,20.5c0.3,0.5,0.5,1,0.7,1.5l11.8-4.2c-0.4-1-0.8-2-1.3-2.9L45.6,20.5z"/>
	</defs>
	<clipPath id="SVGID_23_">
		<use xlink:href="#SVGID_22_"  style="overflow:visible;"/>
	</clipPath>
	
		<radialGradient id="SVGID_24_" cx="-148.5096" cy="417.5843" r="1.0596" gradientTransform="matrix(9.1079 20.4592 22.3719 -9.9602 -7955.8921 7224.3706)" gradientUnits="userSpaceOnUse">
		<stop  offset="0" style="stop-color:#FFFFFF"/>
		<stop  offset="0.53" style="stop-color:#FFFFFF"/>
		<stop  offset="0.594" style="stop-color:#FFF8EB"/>
		<stop  offset="0.7249" style="stop-color:#FFE5B7"/>
		<stop  offset="0.77" style="stop-color:#FFDEA3"/>
		<stop  offset="0.8062" style="stop-color:#FFD88F"/>
		<stop  offset="0.88" style="stop-color:#FFC75B"/>
		<stop  offset="0.9164" style="stop-color:#FEC347"/>
		<stop  offset="0.9671" style="stop-color:#FDBE32"/>
		<stop  offset="1" style="stop-color:#FDBC2A"/>
	</radialGradient>
	<polygon class="st8" points="56,10.2 60.7,20.8 47.7,26.6 43,16 	"/>
</g>
<g>
	<defs>
		<path id="SVGID_25_" d="M36,13.5c-0.7-0.1-1.4-0.2-2.1-0.2c-0.8,0-1.5,0.1-2.2,0.2L29.2,2.8l1.6,10.9c-1.4,0.3-2.6,0.9-3.8,1.6
			l-6.3-9l5.5,9.5c-1.1,0.8-2.1,1.8-2.9,2.8l-9.4-6.1l8.9,6.9c-0.5,0.8-0.9,1.6-1.3,2.5c1.1,0.9,4.4,3.5,4.5,3.5
			c0.1,0,4.2-2.4,4.2-2.4l3.6-2.5l3.2,2.3l2.4,0.5l2.4,1.6c0,0,2.6-1.8,4.7-3.1c-0.3-0.9-0.8-1.8-1.3-2.6l8.8-6.8l-9.3,6
			c-0.8-1.1-1.8-2.1-3-2.8l5.5-9.4l-6.3,8.9c-1.2-0.7-2.5-1.2-3.8-1.5l1.6-10.9L36,13.5z"/>
	</defs>
	<clipPath id="SVGID_26_">
		<use xlink:href="#SVGID_25_"  style="overflow:visible;"/>
	</clipPath>
	
		<radialGradient id="SVGID_27_" cx="-161.1015" cy="421.4651" r="1.0596" gradientTransform="matrix(24.5678 0 0 -24.5678 3991.5132 10381.2305)" gradientUnits="userSpaceOnUse">
		<stop  offset="0" style="stop-color:#FFFFFF"/>
		<stop  offset="0.72" style="stop-color:#FFFFFF"/>
		<stop  offset="0.8163" style="stop-color:#FFF7EA"/>
		<stop  offset="1" style="stop-color:#FFE5B9"/>
	</radialGradient>
	<rect x="13.8" y="2.8" class="st9" width="40.1" height="22.6"/>
</g>
<g>
	<path class="st10" d="M58.9,20.6l-3.3-2.4c0,0-4,3.1-4.2,3.2c-0.2,0-2.8-0.9-2.8-0.9c-0.9,0.5-6.8,4.4-6.8,4.4l-2.4-1.6l-2.4-0.5
		l-3.2-2.3l-3.6,2.5c0,0-4.1,2.4-4.2,2.4c-0.1,0-4.9-3.8-4.9-3.8l-2.2-2.3c-0.4,0.2-2.1,1-2.1,1l-3-2.1l-5.5,3.1
		c-0.4,1.8-0.6,3.6-0.6,5.5c0,1.7,0.2,3.3,0.5,4.9c2.3-0.4,6.5-1,9.9-0.6c5,0.6,8.2,1.5,13.5,2.7c5.3,1.2,9.2,2.3,15,1.7
		c5.4-0.6,9.3-1.7,12.8-4.3c0.2-1.4,0.4-2.9,0.4-4.4C59.7,24.7,59.4,22.6,58.9,20.6"/>
	<path class="st0" d="M25,46.3l-0.3,0c-0.1,0-0.1,0-0.2,0c-0.5-0.1-0.7-0.5-0.9-0.9l-1.2-2c-0.2-0.3-0.4-0.8-0.9-0.8
		c1.2-0.1,2.2-0.8,2.2-2c0-1.4-1.3-2-2.7-2c-0.8,0-1.6,0-2.4,0c-0.5,0-1,0-1.5,0c-0.3,0-0.3,0.1-0.3,0.2c0,0.2,0.1,0.2,0.4,0.2
		c1,0.1,0.9,0.2,0.9,1.1v5.3c0,0.8,0.1,1-0.7,1c0,0-0.1,0-0.2,0l-0.3,0c-0.1,0.1-0.1,0.3,0,0.3c0.2,0,0.5,0,0.5,0c0.4,0,0.9,0,1.3,0
		c0.4,0,0.9,0,1.3,0c0.2,0,0.3,0,0.5,0c0.1,0,0.1-0.2,0-0.3l-0.3,0c-0.1,0-0.2,0-0.2,0c-0.8-0.1-0.8-0.3-0.8-1.1v-2
		c0-0.1,0-0.4,0.1-0.5c0.1-0.1,0.2-0.1,0.3-0.1c1.1,0,1.1,0.1,1.6,1l1.4,2.5c0.1,0.2,0.2,0.4,0.5,0.4h1.2c0.2,0,0.3,0,0.5,0
		C25.1,46.6,25.1,46.4,25,46.3 M20.2,42.4c-0.2,0-0.7,0.1-0.7-0.2v-2.3c0-0.9,0-1,1.1-1c1.3,0,2,0.6,2,1.8c0,0.5-0.2,1-0.7,1.3
		C21.4,42.3,20.8,42.4,20.2,42.4"/>
	<path class="st0" d="M20.4,51.8c0-1.3,0-1.5-0.9-1.5l-0.3,0c-0.1,0-0.1-0.3,0-0.3c0.7,0,1.2,0,1.7,0c0.5,0,1,0,1.6,0
		c0.1,0,0.1,0.3,0,0.3l-0.3,0c-0.8,0.1-0.8,0.3-0.8,1.5v4.2c0,0.8,0,1.1,0.3,1.3c0.1,0.1,0.4,0.3,1.4,0.3c1.1,0,1.4,0,1.6-0.2
		c0.3-0.1,0.6-0.6,0.9-1.2c0.1-0.1,0.3,0,0.3,0.1c0,0.1-0.4,1.4-0.6,1.7c-0.7,0-1.9,0-3.3,0H21c-0.6,0-1,0-1.7,0
		c-0.1,0-0.1-0.2,0-0.3l0.4,0c0.8-0.1,0.8-0.2,0.8-1.5V51.8z"/>
	<path class="st0" d="M55.8,51.8c0-1.3,0-1.5-0.8-1.5l-0.3,0c-0.1,0-0.1-0.3,0-0.3c0.6,0,1.1,0,1.6,0c0.5,0,1,0,1.6,0
		c0.1,0,0.1,0.3,0,0.3l-0.3,0c-0.8,0.1-0.8,0.3-0.8,1.5v4.3c0,1.3,0,1.4,0.8,1.5l0.3,0c0.1,0,0.1,0.3,0,0.3c-0.6,0-1.1,0-1.6,0
		c-0.5,0-1,0-1.6,0c-0.1,0-0.1-0.2,0-0.3l0.3,0c0.8-0.1,0.8-0.3,0.8-1.5V51.8z"/>
	<path class="st0" d="M45.4,57.6c-0.1,0-0.2,0-0.2,0c-0.1,0-0.3,0-0.4-0.1c-0.2-0.2-0.2-0.7-0.2-0.9v-5.3c0-0.2-0.1-0.7,0.1-0.9
		c0.1-0.1,0.3-0.1,0.4-0.1c0.1,0,0.1,0,0.2,0l0.3,0c0.1,0,0.1-0.3,0-0.3c-0.2,0-0.3,0-0.5,0h-1.4c-0.2,0-0.3,0-0.4,0.2l-2.9,6
		L38,50.3c-0.1-0.2-0.1-0.4-0.4-0.4h-1.5c-0.2,0-0.3,0-0.5,0c-0.1,0-0.1,0.3,0,0.3l0.3,0c0.1,0,0.2,0,0.2,0c0.6,0,0.6,0.2,0.5,0.7
		l-0.4,5.6c0,0.6-0.1,0.9-0.7,0.9c0,0-0.1,0-0.2,0l-0.3,0c-0.1,0.1-0.1,0.3,0,0.3c0.2,0,0.5,0,0.5,0c0.3,0,0.6,0,0.9,0
		c0.3,0,0.7,0,1,0c0.2,0,0.3,0,0.5,0c0.1,0,0.1-0.2,0-0.3l-0.3,0c-0.1,0-0.2,0-0.2,0c-0.9-0.1-0.8-0.7-0.8-1.4l0.4-5.2h0.1l2.8,6.5
		c0,0.1,0.1,0.2,0.2,0.2c0.1,0,0.2-0.1,0.2-0.2l3.1-6.6h0.1v5.8c0,0.2,0,0.7-0.2,0.9c-0.1,0.1-0.5,0.1-0.5,0.1c-0.1,0-0.1,0-0.2,0
		l-0.3,0c-0.1,0.1-0.1,0.3,0,0.3c0.2,0,0.5,0,0.5,0c0.5,0,0.9,0,1.4,0c0.3,0,1,0,1,0c0.2,0,0.3,0,0.5,0c0.1,0,0.1-0.2,0-0.3
		L45.4,57.6z"/>
	<path class="st0" d="M67.1,57.6L67.1,57.6c-0.1,0-0.2-0.1-0.2-0.1c-0.5-0.1-0.7-0.7-0.9-1.2L63.3,50c0-0.1-0.1-0.2-0.2-0.2
		c-0.1,0-0.2,0.2-0.2,0.3l-2.6,6.3c-0.1,0.2-0.3,0.8-0.5,1c-0.1,0.1-0.3,0.2-0.5,0.2c0,0-0.1,0-0.2,0l-0.3,0c-0.1,0.1-0.1,0.3,0,0.3
		c0.2,0,0.5,0,0.5,0c0.3,0,0.7,0,1,0c0.3,0,0.6,0,0.9,0c0,0,0.3,0,0.5,0c0.1,0,0.1-0.2,0-0.3l-0.3,0c-0.1,0-0.2,0-0.2,0
		c-0.3,0-0.7-0.1-0.7-0.4c0-0.2,0.1-0.5,0.2-0.7l0.4-0.9c0.2-0.5,0.1-0.5,0.6-0.5h1.8c0.6,0,0.5,0,0.8,0.6l0.4,1
		c0.1,0.2,0.2,0.4,0.2,0.6c0,0.3-0.3,0.3-0.7,0.4c0,0-0.1,0-0.2,0l-0.3,0c-0.1,0.1-0.1,0.3,0,0.3c0.2,0,0.5,0,0.5,0
		c0.4,0,0.8,0,1.1,0c0.5,0,0.9,0,1.4,0c0.2,0,0,0,0.2,0C67.2,57.9,67.2,57.7,67.1,57.6 M63.6,54.6H62c-0.1,0-0.5,0.1-0.5-0.1
		c0,0,0-0.1,0-0.2l0.9-2.3c0-0.1,0.1-0.4,0.2-0.4c0.1,0,0.2,0.3,0.2,0.4l0.9,2.2c0,0,0.1,0.2,0.1,0.3C64,54.7,63.7,54.6,63.6,54.6"
		/>
</g>
<rect x="76.4" y="0.6" class="st11" width="0.8" height="57.8"/>
</svg>
